<svg xmlns="http://www.w3.org/2000/svg" width="960" height="500"><defs><style type="text/css"><![CDATA[ 
:root {
  background: #fff;
}
.current {
  fill: #2aa748;
}
.active {
  fill: #47b4ff;
}
.maintenance {
  fill: #89a19d;
}
.unstable {
  fill: #ffb800;
}
.bar-join {
  fill: #ffffff;
}
.bar-join.unstable, .bar-join.current {
  display: none;
}
.tick text {
  font: 16px sans-serif;
  fill: #000;
}
.axis--y .tick text {
  text-anchor: end;
}
.label {
  fill: #fff;
  font: 20px sans-serif;
  font-weight: 100;
  text-anchor: start;
  dominant-baseline: middle;
  text-transform: uppercase;
} ]]></style></defs><g id="bar-container" transform="translate(110, 30)"><g class="axis axis--x" fill="none" font-size="10" font-family="sans-serif" text-anchor="middle"><g class="tick" opacity="1" transform="translate(34.02625570776256,0)"><line stroke="#89a19d" y2="440" x1="0.5" x2="0.5"></line><text fill="#000" y="0" x="0.5" dy="-10">Jul 2020</text></g><g class="tick" opacity="1" transform="translate(137.36872146118722,0)"><line stroke="#89a19d" y2="440" x1="0.5" x2="0.5" stroke-dasharray="2,2"></line><text fill="#000" y="0" x="0.5" dy="-10">Oct 2020</text></g><g class="tick" opacity="1" transform="translate(240.75799086757988,0)"><line stroke="#89a19d" y2="440" x1="0.5" x2="0.5"></line><text fill="#000" y="0" x="0.5" dy="-10">Jan 2021</text></g><g class="tick" opacity="1" transform="translate(341.8070776255708,0)"><line stroke="#89a19d" y2="440" x1="0.5" x2="0.5" stroke-dasharray="2,2"></line><text fill="#000" y="0" x="0.5" dy="-10">Apr 2021</text></g><g class="tick" opacity="1" transform="translate(444.0262557077626,0)"><line stroke="#89a19d" y2="440" x1="0.5" x2="0.5"></line><text fill="#000" y="0" x="0.5" dy="-10">Jul 2021</text></g><g class="tick" opacity="1" transform="translate(547.3687214611873,0)"><line stroke="#89a19d" y2="440" x1="0.5" x2="0.5" stroke-dasharray="2,2"></line><text fill="#000" y="0" x="0.5" dy="-10">Oct 2021</text></g><g class="tick" opacity="1" transform="translate(650.7579908675799,0)"><line stroke="#89a19d" y2="440" x1="0.5" x2="0.5"></line><text fill="#000" y="0" x="0.5" dy="-10">Jan 2022</text></g><g class="tick" opacity="1" transform="translate(751.8070776255707,0)"><line stroke="#89a19d" y2="440" x1="0.5" x2="0.5" stroke-dasharray="2,2"></line><text fill="#000" y="0" x="0.5" dy="-10">Apr 2022</text></g></g><g class="axis axis--y" fill="none" font-size="10" font-family="sans-serif" text-anchor="start"><g class="tick" opacity="1" transform="translate(0,53.96226415094337)"><line stroke="#e1e7e7" x2="820" y1="0.5" y2="0.5"></line><text fill="#000" x="0" y="0.5" dy="0.32em" dx="-10">  Fabric 1.15 v1</text></g><g class="tick" opacity="1" transform="translate(0,136.98113207547166)"><line stroke="#e1e7e7" x2="820" y1="0.5" y2="0.5"></line><text fill="#000" x="0" y="0.5" dy="0.32em" dx="-10">  Forge 1.15 v1</text></g><g class="tick" opacity="1" transform="translate(0,219.99999999999997)"><line stroke="#e1e7e7" x2="820" y1="0.5" y2="0.5"></line><text fill="#000" x="0" y="0.5" dy="0.32em" dx="-10">  Fabric 1.16 v2</text></g><g class="tick" opacity="1" transform="translate(0,303.0188679245283)"><line stroke="#e1e7e7" x2="820" y1="0.5" y2="0.5"></line><text fill="#000" x="0" y="0.5" dy="0.32em" dx="-10">  Forge 1.16 v2</text></g><g class="tick" opacity="1" transform="translate(0,386.0377358490566)"><line stroke="#e1e7e7" x2="820" y1="0.5" y2="0.5"></line><text fill="#000" x="0" y="0.5" dy="0.32em" dx="-10">  Fabric 1.17 v3</text></g><line y1="440" y2="440" x2="820" stroke="#89a19d"></line></g><g><rect class="bar maintenance" x="443.69863013698637" y="24.90566037735846" width="206.68493150684924" height="58.113207547169814"></rect><rect class="bar-join maintenance" x="442.69863013698637" y="24.90566037735846" width="2" height="58.113207547169814" style="opacity: 1;"></rect><text class="label" x="458.69863013698637" y="55.96226415094337" style="opacity: 1;">maintenance</text></g><g><rect class="bar active" x="33.6986301369863" y="24.90566037735846" width="410.00000000000006" height="58.113207547169814"></rect><rect class="bar-join active" x="32.6986301369863" y="24.90566037735846" width="2" height="58.113207547169814" style="opacity: 1;"></rect><text class="label" x="48.6986301369863" y="55.96226415094337" style="opacity: 1;">active</text></g><g><rect class="bar unstable" x="0" y="24.90566037735846" width="33.6986301369863" height="58.113207547169814"></rect><rect class="bar-join unstable" x="-1" y="24.90566037735846" width="2" height="58.113207547169814" style="opacity: 0;"></rect><text class="label" x="15" y="55.96226415094337" style="opacity: 0;">unstable</text></g><g><rect class="bar maintenance" x="452.6849315068493" y="107.92452830188677" width="197.6986301369863" height="58.113207547169814"></rect><rect class="bar-join maintenance" x="451.6849315068493" y="107.92452830188677" width="2" height="58.113207547169814" style="opacity: 1;"></rect><text class="label" x="467.6849315068493" y="138.98113207547166" style="opacity: 1;">maintenance</text></g><g><rect class="bar unstable" x="418.986301369863" y="107.92452830188677" width="33.69863013698631" height="58.113207547169814"></rect><rect class="bar-join unstable" x="417.986301369863" y="107.92452830188677" width="2" height="58.113207547169814" style="opacity: 0;"></rect><text class="label" x="433.986301369863" y="138.98113207547166" style="opacity: 0;">unstable</text></g><g><rect class="bar maintenance" x="650.3835616438356" y="190.94339622641508" width="169.6164383561644" height="58.113207547169814"></rect><rect class="bar-join maintenance" x="649.3835616438356" y="190.94339622641508" width="2" height="58.113207547169814" style="opacity: 1;"></rect><text class="label" x="665.3835616438356" y="221.99999999999997" style="opacity: 1;">maintenance</text></g><g><rect class="bar active" x="68.52054794520548" y="190.94339622641508" width="581.8630136986301" height="58.113207547169814"></rect><rect class="bar-join active" x="67.52054794520548" y="190.94339622641508" width="2" height="58.113207547169814" style="opacity: 1;"></rect><text class="label" x="83.52054794520548" y="221.99999999999997" style="opacity: 1;">active</text></g><g><rect class="bar unstable" x="33.6986301369863" y="190.94339622641508" width="34.821917808219176" height="58.113207547169814"></rect><rect class="bar-join unstable" x="32.6986301369863" y="190.94339622641508" width="2" height="58.113207547169814" style="opacity: 0;"></rect><text class="label" x="48.6986301369863" y="221.99999999999997" style="opacity: 0;">unstable</text></g><g><rect class="bar maintenance" x="650.3835616438356" y="273.9622641509434" width="169.6164383561644" height="58.113207547169814"></rect><rect class="bar-join maintenance" x="649.3835616438356" y="273.9622641509434" width="2" height="58.113207547169814" style="opacity: 1;"></rect><text class="label" x="665.3835616438356" y="305.0188679245283" style="opacity: 1;">maintenance</text></g><g><rect class="bar active" x="452.6849315068493" y="273.9622641509434" width="197.6986301369863" height="58.113207547169814"></rect><rect class="bar-join active" x="451.6849315068493" y="273.9622641509434" width="2" height="58.113207547169814" style="opacity: 1;"></rect><text class="label" x="467.6849315068493" y="305.0188679245283" style="opacity: 1;">active</text></g><g><rect class="bar unstable" x="418.986301369863" y="273.9622641509434" width="33.69863013698631" height="58.113207547169814"></rect><rect class="bar-join unstable" x="417.986301369863" y="273.9622641509434" width="2" height="58.113207547169814" style="opacity: 0;"></rect><text class="label" x="433.986301369863" y="305.0188679245283" style="opacity: 0;">unstable</text></g><g><rect class="bar active" x="452.6849315068493" y="356.9811320754717" width="367.3150684931507" height="58.113207547169814"></rect><rect class="bar-join active" x="451.6849315068493" y="356.9811320754717" width="2" height="58.113207547169814" style="opacity: 1;"></rect><text class="label" x="467.6849315068493" y="388.0377358490566" style="opacity: 1;">active</text></g><g><rect class="bar unstable" x="418.986301369863" y="356.9811320754717" width="33.69863013698631" height="58.113207547169814"></rect><rect class="bar-join unstable" x="417.986301369863" y="356.9811320754717" width="2" height="58.113207547169814" style="opacity: 0;"></rect><text class="label" x="433.986301369863" y="388.0377358490566" style="opacity: 0;">unstable</text></g></g></svg>