<svg xmlns="http://www.w3.org/2000/svg" width="960" height="500"><defs><style type="text/css"><![CDATA[ 
:root {
  background: #fff;
}
.current {
  fill: #2aa748;
}
.active {
  fill: #47b4ff;
}
.maintenance {
  fill: #89a19d;
}
.unstable {
  fill: #ffb800;
}
.bar-join {
  fill: #ffffff;
}
.bar-join.unstable, .bar-join.current {
  display: none;
}
.tick text {
  font: 16px sans-serif;
  fill: #000;
}
.axis--y .tick text {
  text-anchor: end;
}
.label {
  fill: #fff;
  font: 20px sans-serif;
  font-weight: 100;
  text-anchor: start;
  dominant-baseline: middle;
  text-transform: uppercase;
} ]]></style></defs><g id="bar-container" transform="translate(110, 30)"><g class="axis axis--x" fill="none" font-size="10" font-family="sans-serif" text-anchor="middle"><g class="tick" opacity="1" transform="translate(0.1936885865457294,0)"><line stroke="#89a19d" y2="440" x1="0.5" x2="0.5"></line><text fill="#000" y="0" x="0.5" dy="-10">Jan 2020</text></g><g class="tick" opacity="1" transform="translate(84.7581254724112,0)"><line stroke="#89a19d" y2="440" x1="0.5" x2="0.5" stroke-dasharray="2,2"></line><text fill="#000" y="0" x="0.5" dy="-10">Apr 2020</text></g><g class="tick" opacity="1" transform="translate(169.3613000755858,0)"><line stroke="#89a19d" y2="440" x1="0.5" x2="0.5"></line><text fill="#000" y="0" x="0.5" dy="-10">Jul 2020</text></g><g class="tick" opacity="1" transform="translate(254.89417989417993,0)"><line stroke="#89a19d" y2="440" x1="0.5" x2="0.5" stroke-dasharray="2,2"></line><text fill="#000" y="0" x="0.5" dy="-10">Oct 2020</text></g><g class="tick" opacity="1" transform="translate(340.4657974300831,0)"><line stroke="#89a19d" y2="440" x1="0.5" x2="0.5"></line><text fill="#000" y="0" x="0.5" dy="-10">Jan 2021</text></g><g class="tick" opacity="1" transform="translate(424.1005291005291,0)"><line stroke="#89a19d" y2="440" x1="0.5" x2="0.5" stroke-dasharray="2,2"></line><text fill="#000" y="0" x="0.5" dy="-10">Apr 2021</text></g><g class="tick" opacity="1" transform="translate(508.7037037037037,0)"><line stroke="#89a19d" y2="440" x1="0.5" x2="0.5"></line><text fill="#000" y="0" x="0.5" dy="-10">Jul 2021</text></g><g class="tick" opacity="1" transform="translate(594.2365835222978,0)"><line stroke="#89a19d" y2="440" x1="0.5" x2="0.5" stroke-dasharray="2,2"></line><text fill="#000" y="0" x="0.5" dy="-10">Oct 2021</text></g><g class="tick" opacity="1" transform="translate(679.808201058201,0)"><line stroke="#89a19d" y2="440" x1="0.5" x2="0.5"></line><text fill="#000" y="0" x="0.5" dy="-10">Jan 2022</text></g><g class="tick" opacity="1" transform="translate(763.442932728647,0)"><line stroke="#89a19d" y2="440" x1="0.5" x2="0.5" stroke-dasharray="2,2"></line><text fill="#000" y="0" x="0.5" dy="-10">Apr 2022</text></g></g><g class="axis axis--y" fill="none" font-size="10" font-family="sans-serif" text-anchor="start"><g class="tick" opacity="1" transform="translate(0,45.39682539682538)"><line stroke="#e1e7e7" x2="820" y1="0.5" y2="0.5"></line><text fill="#000" x="0" y="0.5" dy="0.32em" dx="-10">  Fabric 1.15 v1</text></g><g class="tick" opacity="1" transform="translate(0,115.23809523809523)"><line stroke="#e1e7e7" x2="820" y1="0.5" y2="0.5"></line><text fill="#000" x="0" y="0.5" dy="0.32em" dx="-10">  Forge 1.15 v1</text></g><g class="tick" opacity="1" transform="translate(0,185.0793650793651)"><line stroke="#e1e7e7" x2="820" y1="0.5" y2="0.5"></line><text fill="#000" x="0" y="0.5" dy="0.32em" dx="-10">  Fabric 1.16.1 v2</text></g><g class="tick" opacity="1" transform="translate(0,254.92063492063494)"><line stroke="#e1e7e7" x2="820" y1="0.5" y2="0.5"></line><text fill="#000" x="0" y="0.5" dy="0.32em" dx="-10">  Fabric 1.16.4 v3</text></g><g class="tick" opacity="1" transform="translate(0,324.7619047619048)"><line stroke="#e1e7e7" x2="820" y1="0.5" y2="0.5"></line><text fill="#000" x="0" y="0.5" dy="0.32em" dx="-10">  Forge 1.16.4 v3</text></g><g class="tick" opacity="1" transform="translate(0,394.6031746031747)"><line stroke="#e1e7e7" x2="820" y1="0.5" y2="0.5"></line><text fill="#000" x="0" y="0.5" dy="0.32em" dx="-10">  Fabric 1.17 v4</text></g><line y1="440" y2="440" x2="820" stroke="#89a19d"></line></g><g><rect class="bar maintenance" x="508.5487528344671" y="20.952380952380935" width="171.0657596371882" height="48.88888888888889"></rect><rect class="bar-join maintenance" x="507.5487528344671" y="20.952380952380935" width="2" height="48.88888888888889" style="opacity: 1;"></rect><text class="label" x="523.5487528344671" y="47.39682539682538" style="opacity: 1;">maintenance</text></g><g><rect class="bar active" x="28.820861678004537" y="20.952380952380935" width="479.7278911564626" height="48.88888888888889"></rect><rect class="bar-join active" x="27.820861678004537" y="20.952380952380935" width="2" height="48.88888888888889" style="opacity: 1;"></rect><text class="label" x="43.82086167800453" y="47.39682539682538" style="opacity: 1;">active</text></g><g><rect class="bar unstable" x="0" y="20.952380952380935" width="28.820861678004537" height="48.88888888888889"></rect><rect class="bar-join unstable" x="-1" y="20.952380952380935" width="2" height="48.88888888888889" style="opacity: 0;"></rect><text class="label" x="15" y="47.39682539682538" style="opacity: 0;">unstable</text></g><g><rect class="bar maintenance" x="508.5487528344671" y="90.79365079365078" width="171.0657596371882" height="48.88888888888889"></rect><rect class="bar-join maintenance" x="507.5487528344671" y="90.79365079365078" width="2" height="48.88888888888889" style="opacity: 1;"></rect><text class="label" x="523.5487528344671" y="117.23809523809523" style="opacity: 1;">maintenance</text></g><g><rect class="bar active" x="283.56009070294783" y="90.79365079365078" width="224.98866213151928" height="48.88888888888889"></rect><rect class="bar-join active" x="282.56009070294783" y="90.79365079365078" width="2" height="48.88888888888889" style="opacity: 1;"></rect><text class="label" x="298.56009070294783" y="117.23809523809523" style="opacity: 1;">active</text></g><g><rect class="bar unstable" x="254.73922902494328" y="90.79365079365078" width="28.820861678004547" height="48.88888888888889"></rect><rect class="bar-join unstable" x="253.73922902494328" y="90.79365079365078" width="2" height="48.88888888888889" style="opacity: 0;"></rect><text class="label" x="269.73922902494326" y="117.23809523809523" style="opacity: 0;">unstable</text></g><g><rect class="bar maintenance" x="322.60770975056687" y="160.63492063492063" width="169.20634920634922" height="48.88888888888889"></rect><rect class="bar-join maintenance" x="321.60770975056687" y="160.63492063492063" width="2" height="48.88888888888889" style="opacity: 1;"></rect><text class="label" x="337.60770975056687" y="187.0793650793651" style="opacity: 1;">maintenance</text></g><g><rect class="bar active" x="190.58956916099774" y="160.63492063492063" width="132.01814058956913" height="48.88888888888889"></rect><rect class="bar-join active" x="189.58956916099774" y="160.63492063492063" width="2" height="48.88888888888889" style="opacity: 1;"></rect><text class="label" x="205.58956916099774" y="187.0793650793651" style="opacity: 1;">active</text></g><g><rect class="bar unstable" x="162.69841269841268" y="160.63492063492063" width="27.89115646258506" height="48.88888888888889"></rect><rect class="bar-join unstable" x="161.69841269841268" y="160.63492063492063" width="2" height="48.88888888888889" style="opacity: 0;"></rect><text class="label" x="177.69841269841268" y="187.0793650793651" style="opacity: 0;">unstable</text></g><g><rect class="bar maintenance" x="679.6145124716553" y="230.47619047619048" width="140.3854875283447" height="48.88888888888889"></rect><rect class="bar-join maintenance" x="678.6145124716553" y="230.47619047619048" width="2" height="48.88888888888889" style="opacity: 1;"></rect><text class="label" x="694.6145124716553" y="256.92063492063494" style="opacity: 0;">maintenance</text></g><g><rect class="bar active" x="322.60770975056687" y="230.47619047619048" width="357.00680272108843" height="48.88888888888889"></rect><rect class="bar-join active" x="321.60770975056687" y="230.47619047619048" width="2" height="48.88888888888889" style="opacity: 1;"></rect><text class="label" x="337.60770975056687" y="256.92063492063494" style="opacity: 1;">active</text></g><g><rect class="bar unstable" x="294.71655328798187" y="230.47619047619048" width="27.891156462585002" height="48.88888888888889"></rect><rect class="bar-join unstable" x="293.71655328798187" y="230.47619047619048" width="2" height="48.88888888888889" style="opacity: 0;"></rect><text class="label" x="309.71655328798187" y="256.92063492063494" style="opacity: 0;">unstable</text></g><g><rect class="bar maintenance" x="679.6145124716553" y="300.31746031746036" width="140.3854875283447" height="48.88888888888889"></rect><rect class="bar-join maintenance" x="678.6145124716553" y="300.31746031746036" width="2" height="48.88888888888889" style="opacity: 1;"></rect><text class="label" x="694.6145124716553" y="326.7619047619048" style="opacity: 0;">maintenance</text></g><g><rect class="bar active" x="322.60770975056687" y="300.31746031746036" width="357.00680272108843" height="48.88888888888889"></rect><rect class="bar-join active" x="321.60770975056687" y="300.31746031746036" width="2" height="48.88888888888889" style="opacity: 1;"></rect><text class="label" x="337.60770975056687" y="326.7619047619048" style="opacity: 1;">active</text></g><g><rect class="bar unstable" x="294.71655328798187" y="300.31746031746036" width="27.891156462585002" height="48.88888888888889"></rect><rect class="bar-join unstable" x="293.71655328798187" y="300.31746031746036" width="2" height="48.88888888888889" style="opacity: 0;"></rect><text class="label" x="309.71655328798187" y="326.7619047619048" style="opacity: 0;">unstable</text></g><g><rect class="bar active" x="508.5487528344671" y="370.15873015873024" width="311.4512471655329" height="48.88888888888889"></rect><rect class="bar-join active" x="507.5487528344671" y="370.15873015873024" width="2" height="48.88888888888889" style="opacity: 1;"></rect><text class="label" x="523.5487528344671" y="396.6031746031747" style="opacity: 1;">active</text></g><g><rect class="bar unstable" x="480.65759637188205" y="370.15873015873024" width="27.89115646258506" height="48.88888888888889"></rect><rect class="bar-join unstable" x="479.65759637188205" y="370.15873015873024" width="2" height="48.88888888888889" style="opacity: 0;"></rect><text class="label" x="495.65759637188205" y="396.6031746031747" style="opacity: 0;">unstable</text></g></g></svg>