<svg xmlns="http://www.w3.org/2000/svg" width="960" height="500"><defs><style type="text/css"><![CDATA[ 
:root {
  background: #fff;
}
.current {
  fill: #2aa748;
}
.active {
  fill: #47b4ff;
}
.maintenance {
  fill: #89a19d;
}
.unstable {
  fill: #ffb800;
}
.bar-join {
  fill: #ffffff;
}
.bar-join.unstable, .bar-join.current {
  display: none;
}
.tick text {
  font: 16px sans-serif;
  fill: #000;
}
.axis--y .tick text {
  text-anchor: end;
}
.label {
  fill: #fff;
  font: 20px sans-serif;
  font-weight: 100;
  text-anchor: start;
  dominant-baseline: middle;
  text-transform: uppercase;
} ]]></style></defs><g id="bar-container" transform="translate(110, 30)"><g class="axis axis--x" fill="none" font-size="10" font-family="sans-serif" text-anchor="middle"><g class="tick" opacity="1" transform="translate(58.09537798668233,0)"><line stroke="#89a19d" y2="440" x1="0.5" x2="0.5"></line><text fill="#000" y="0" x="0.5" dy="-10">Apr 2020</text></g><g class="tick" opacity="1" transform="translate(145.7804543674109,0)"><line stroke="#89a19d" y2="440" x1="0.5" x2="0.5" stroke-dasharray="2,2"></line><text fill="#000" y="0" x="0.5" dy="-10">Jul 2020</text></g><g class="tick" opacity="1" transform="translate(234.42910301605954,0)"><line stroke="#89a19d" y2="440" x1="0.5" x2="0.5"></line><text fill="#000" y="0" x="0.5" dy="-10">Oct 2020</text></g><g class="tick" opacity="1" transform="translate(323.11790050920484,0)"><line stroke="#89a19d" y2="440" x1="0.5" x2="0.5" stroke-dasharray="2,2"></line><text fill="#000" y="0" x="0.5" dy="-10">Jan 2021</text></g><g class="tick" opacity="1" transform="translate(409.79925577751663,0)"><line stroke="#89a19d" y2="440" x1="0.5" x2="0.5"></line><text fill="#000" y="0" x="0.5" dy="-10">Apr 2021</text></g><g class="tick" opacity="1" transform="translate(497.48433215824514,0)"><line stroke="#89a19d" y2="440" x1="0.5" x2="0.5" stroke-dasharray="2,2"></line><text fill="#000" y="0" x="0.5" dy="-10">Jul 2021</text></g><g class="tick" opacity="1" transform="translate(586.1329808068938,0)"><line stroke="#89a19d" y2="440" x1="0.5" x2="0.5"></line><text fill="#000" y="0" x="0.5" dy="-10">Oct 2021</text></g><g class="tick" opacity="1" transform="translate(674.8217783000391,0)"><line stroke="#89a19d" y2="440" x1="0.5" x2="0.5" stroke-dasharray="2,2"></line><text fill="#000" y="0" x="0.5" dy="-10">Jan 2022</text></g><g class="tick" opacity="1" transform="translate(761.503133568351,0)"><line stroke="#89a19d" y2="440" x1="0.5" x2="0.5"></line><text fill="#000" y="0" x="0.5" dy="-10">Apr 2022</text></g></g><g class="axis axis--y" fill="none" font-size="10" font-family="sans-serif" text-anchor="start"><g class="tick" opacity="1" transform="translate(0,53.96226415094337)"><line stroke="#e1e7e7" x2="820" y1="0.5" y2="0.5"></line><text fill="#000" x="0" y="0.5" dy="0.32em" dx="-10">  Fabric 1.15 v1</text></g><g class="tick" opacity="1" transform="translate(0,136.98113207547166)"><line stroke="#e1e7e7" x2="820" y1="0.5" y2="0.5"></line><text fill="#000" x="0" y="0.5" dy="0.32em" dx="-10">  Forge 1.15 v1</text></g><g class="tick" opacity="1" transform="translate(0,219.99999999999997)"><line stroke="#e1e7e7" x2="820" y1="0.5" y2="0.5"></line><text fill="#000" x="0" y="0.5" dy="0.32em" dx="-10">  Fabric 1.16 v2</text></g><g class="tick" opacity="1" transform="translate(0,303.0188679245283)"><line stroke="#e1e7e7" x2="820" y1="0.5" y2="0.5"></line><text fill="#000" x="0" y="0.5" dy="0.32em" dx="-10">  Forge 1.16 v2</text></g><g class="tick" opacity="1" transform="translate(0,386.0377358490566)"><line stroke="#e1e7e7" x2="820" y1="0.5" y2="0.5"></line><text fill="#000" x="0" y="0.5" dy="0.32em" dx="-10">  Fabric 1.17 v3</text></g><line y1="440" y2="440" x2="820" stroke="#89a19d"></line></g><g><rect class="bar maintenance" x="497.2032902467685" y="24.90566037735846" width="177.29729729729735" height="58.113207547169814"></rect><rect class="bar-join maintenance" x="496.2032902467685" y="24.90566037735846" width="2" height="58.113207547169814" style="opacity: 1;"></rect><text class="label" x="512.2032902467686" y="55.96226415094337" style="opacity: 1;">maintenance</text></g><g><rect class="bar active" x="27.943595769682723" y="24.90566037735846" width="469.2596944770858" height="58.113207547169814"></rect><rect class="bar-join active" x="26.943595769682723" y="24.90566037735846" width="2" height="58.113207547169814" style="opacity: 1;"></rect><text class="label" x="42.94359576968272" y="55.96226415094337" style="opacity: 1;">active</text></g><g><rect class="bar unstable" x="0" y="24.90566037735846" width="27.943595769682723" height="58.113207547169814"></rect><rect class="bar-join unstable" x="-1" y="24.90566037735846" width="2" height="58.113207547169814" style="opacity: 0;"></rect><text class="label" x="15" y="55.96226415094337" style="opacity: 0;">unstable</text></g><g><rect class="bar maintenance" x="497.2032902467685" y="107.92452830188677" width="177.29729729729735" height="58.113207547169814"></rect><rect class="bar-join maintenance" x="496.2032902467685" y="107.92452830188677" width="2" height="58.113207547169814" style="opacity: 1;"></rect><text class="label" x="512.2032902467686" y="138.98113207547166" style="opacity: 1;">maintenance</text></g><g><rect class="bar active" x="266.9095182138661" y="107.92452830188677" width="230.29377203290244" height="58.113207547169814"></rect><rect class="bar-join active" x="265.9095182138661" y="107.92452830188677" width="2" height="58.113207547169814" style="opacity: 1;"></rect><text class="label" x="281.9095182138661" y="138.98113207547166" style="opacity: 1;">active</text></g><g><rect class="bar unstable" x="237.03877790834312" y="107.92452830188677" width="29.870740305522958" height="58.113207547169814"></rect><rect class="bar-join unstable" x="236.03877790834312" y="107.92452830188677" width="2" height="58.113207547169814" style="opacity: 0;"></rect><text class="label" x="252.03877790834312" y="138.98113207547166" style="opacity: 0;">unstable</text></g><g><rect class="bar maintenance" x="674.5005875440659" y="190.94339622641508" width="145.49941245593413" height="58.113207547169814"></rect><rect class="bar-join maintenance" x="673.5005875440659" y="190.94339622641508" width="2" height="58.113207547169814" style="opacity: 1;"></rect><text class="label" x="689.5005875440659" y="221.99999999999997" style="opacity: 0;">maintenance</text></g><g><rect class="bar active" x="240.8930669800235" y="190.94339622641508" width="433.6075205640424" height="58.113207547169814"></rect><rect class="bar-join active" x="239.8930669800235" y="190.94339622641508" width="2" height="58.113207547169814" style="opacity: 1;"></rect><text class="label" x="255.8930669800235" y="221.99999999999997" style="opacity: 1;">active</text></g><g><rect class="bar unstable" x="211.98589894242065" y="190.94339622641508" width="28.907168037602844" height="58.113207547169814"></rect><rect class="bar-join unstable" x="210.98589894242065" y="190.94339622641508" width="2" height="58.113207547169814" style="opacity: 0;"></rect><text class="label" x="226.98589894242065" y="221.99999999999997" style="opacity: 0;">unstable</text></g><g><rect class="bar maintenance" x="674.5005875440659" y="273.9622641509434" width="145.49941245593413" height="58.113207547169814"></rect><rect class="bar-join maintenance" x="673.5005875440659" y="273.9622641509434" width="2" height="58.113207547169814" style="opacity: 1;"></rect><text class="label" x="689.5005875440659" y="305.0188679245283" style="opacity: 0;">maintenance</text></g><g><rect class="bar active" x="266.9095182138661" y="273.9622641509434" width="407.5910693301998" height="58.113207547169814"></rect><rect class="bar-join active" x="265.9095182138661" y="273.9622641509434" width="2" height="58.113207547169814" style="opacity: 1;"></rect><text class="label" x="281.9095182138661" y="305.0188679245283" style="opacity: 1;">active</text></g><g><rect class="bar unstable" x="237.03877790834312" y="273.9622641509434" width="29.870740305522958" height="58.113207547169814"></rect><rect class="bar-join unstable" x="236.03877790834312" y="273.9622641509434" width="2" height="58.113207547169814" style="opacity: 0;"></rect><text class="label" x="252.03877790834312" y="305.0188679245283" style="opacity: 0;">unstable</text></g><g><rect class="bar active" x="497.2032902467685" y="356.9811320754717" width="322.7967097532315" height="58.113207547169814"></rect><rect class="bar-join active" x="496.2032902467685" y="356.9811320754717" width="2" height="58.113207547169814" style="opacity: 1;"></rect><text class="label" x="512.2032902467686" y="388.0377358490566" style="opacity: 1;">active</text></g><g><rect class="bar unstable" x="468.2961222091657" y="356.9811320754717" width="28.907168037602844" height="58.113207547169814"></rect><rect class="bar-join unstable" x="467.2961222091657" y="356.9811320754717" width="2" height="58.113207547169814" style="opacity: 0;"></rect><text class="label" x="483.2961222091657" y="388.0377358490566" style="opacity: 0;">unstable</text></g></g></svg>