<svg xmlns="http://www.w3.org/2000/svg" width="960" height="500"><defs><style type="text/css"><![CDATA[ 
:root {
  background: #fff;
}
.current {
  fill: #2aa748;
}
.active {
  fill: #47b4ff;
}
.maintenance {
  fill: #89a19d;
}
.unstable {
  fill: #ffb800;
}
.bar-join {
  fill: #ffffff;
}
.bar-join.unstable, .bar-join.current {
  display: none;
}
.tick text {
  font: 16px sans-serif;
  fill: #000;
}
.axis--y .tick text {
  text-anchor: end;
}
.label {
  fill: #fff;
  font: 20px sans-serif;
  font-weight: 100;
  text-anchor: start;
  dominant-baseline: middle;
  text-transform: uppercase;
} ]]></style></defs><g id="bar-container" transform="translate(110, 30)"><g class="axis axis--x" fill="none" font-size="10" font-family="sans-serif" text-anchor="middle"><g class="tick" opacity="1" transform="translate(0.3023598820058997,0)"><line stroke="#89a19d" y2="440" x1="0.5" x2="0.5"></line><text fill="#000" y="0" x="0.5" dy="-10">Apr 2020</text></g><g class="tick" opacity="1" transform="translate(94.63864306784662,0)"><line stroke="#89a19d" y2="440" x1="0.5" x2="0.5" stroke-dasharray="2,2"></line><text fill="#000" y="0" x="0.5" dy="-10">Jul 2020</text></g><g class="tick" opacity="1" transform="translate(190.01158870627899,0)"><line stroke="#89a19d" y2="440" x1="0.5" x2="0.5"></line><text fill="#000" y="0" x="0.5" dy="-10">Oct 2020</text></g><g class="tick" opacity="1" transform="translate(285.42772861356934,0)"><line stroke="#89a19d" y2="440" x1="0.5" x2="0.5" stroke-dasharray="2,2"></line><text fill="#000" y="0" x="0.5" dy="-10">Jan 2021</text></g><g class="tick" opacity="1" transform="translate(378.6841550779604,0)"><line stroke="#89a19d" y2="440" x1="0.5" x2="0.5"></line><text fill="#000" y="0" x="0.5" dy="-10">Apr 2021</text></g><g class="tick" opacity="1" transform="translate(473.0204382638011,0)"><line stroke="#89a19d" y2="440" x1="0.5" x2="0.5" stroke-dasharray="2,2"></line><text fill="#000" y="0" x="0.5" dy="-10">Jul 2021</text></g><g class="tick" opacity="1" transform="translate(568.3933839022335,0)"><line stroke="#89a19d" y2="440" x1="0.5" x2="0.5"></line><text fill="#000" y="0" x="0.5" dy="-10">Oct 2021</text></g><g class="tick" opacity="1" transform="translate(663.8095238095239,0)"><line stroke="#89a19d" y2="440" x1="0.5" x2="0.5" stroke-dasharray="2,2"></line><text fill="#000" y="0" x="0.5" dy="-10">Jan 2022</text></g><g class="tick" opacity="1" transform="translate(757.065950273915,0)"><line stroke="#89a19d" y2="440" x1="0.5" x2="0.5"></line><text fill="#000" y="0" x="0.5" dy="-10">Apr 2022</text></g></g><g class="axis axis--y" fill="none" font-size="10" font-family="sans-serif" text-anchor="start"><g class="tick" opacity="1" transform="translate(0,45.39682539682538)"><line stroke="#e1e7e7" x2="820" y1="0.5" y2="0.5"></line><text fill="#000" x="0" y="0.5" dy="0.32em" dx="-10">  Fabric 1.15</text></g><g class="tick" opacity="1" transform="translate(0,115.23809523809523)"><line stroke="#e1e7e7" x2="820" y1="0.5" y2="0.5"></line><text fill="#000" x="0" y="0.5" dy="0.32em" dx="-10">  Forge 1.15</text></g><g class="tick" opacity="1" transform="translate(0,185.0793650793651)"><line stroke="#e1e7e7" x2="820" y1="0.5" y2="0.5"></line><text fill="#000" x="0" y="0.5" dy="0.32em" dx="-10">  Fabric 1.16</text></g><g class="tick" opacity="1" transform="translate(0,254.92063492063494)"><line stroke="#e1e7e7" x2="820" y1="0.5" y2="0.5"></line><text fill="#000" x="0" y="0.5" dy="0.32em" dx="-10">  Forge 1.16</text></g><g class="tick" opacity="1" transform="translate(0,324.7619047619048)"><line stroke="#e1e7e7" x2="820" y1="0.5" y2="0.5"></line><text fill="#000" x="0" y="0.5" dy="0.32em" dx="-10">  Fabric 1.17</text></g><g class="tick" opacity="1" transform="translate(0,394.6031746031747)"><line stroke="#e1e7e7" x2="820" y1="0.5" y2="0.5"></line><text fill="#000" x="0" y="0.5" dy="0.32em" dx="-10">  Forge 1.17</text></g><line y1="440" y2="440" x2="820" stroke="#89a19d"></line></g><g><rect class="bar maintenance" x="472.71807838179524" y="20.952380952380935" width="190.7458912768646" height="48.88888888888889"></rect><rect class="bar-join maintenance" x="471.71807838179524" y="20.952380952380935" width="2" height="48.88888888888889" style="opacity: 1;"></rect><text class="label" x="487.71807838179524" y="47.39682539682538" style="opacity: 1;">maintenance</text></g><g><rect class="bar active" x="52.86978508217447" y="20.952380952380935" width="419.84829329962076" height="48.88888888888889"></rect><rect class="bar-join active" x="51.86978508217447" y="20.952380952380935" width="2" height="48.88888888888889" style="opacity: 1;"></rect><text class="label" x="67.86978508217447" y="47.39682539682538" style="opacity: 1;">active</text></g><g><rect class="bar unstable" x="21.76991150442478" y="20.952380952380935" width="31.099873577749687" height="48.88888888888889"></rect><rect class="bar-join unstable" x="20.76991150442478" y="20.952380952380935" width="2" height="48.88888888888889" style="opacity: 0;"></rect><text class="label" x="36.76991150442478" y="47.39682539682538" style="opacity: 0;">unstable</text></g><g><rect class="bar maintenance" x="472.71807838179524" y="90.79365079365078" width="190.7458912768646" height="48.88888888888889"></rect><rect class="bar-join maintenance" x="471.71807838179524" y="90.79365079365078" width="2" height="48.88888888888889" style="opacity: 1;"></rect><text class="label" x="487.71807838179524" y="117.23809523809523" style="opacity: 1;">maintenance</text></g><g><rect class="bar unstable" x="441.61820480404555" y="90.79365079365078" width="31.09987357774969" height="48.88888888888889"></rect><rect class="bar-join unstable" x="440.61820480404555" y="90.79365079365078" width="2" height="48.88888888888889" style="opacity: 0;"></rect><text class="label" x="456.61820480404555" y="117.23809523809523" style="opacity: 0;">unstable</text></g><g><rect class="bar maintenance" x="663.4639696586598" y="160.63492063492063" width="156.53603034134017" height="48.88888888888889"></rect><rect class="bar-join maintenance" x="662.4639696586598" y="160.63492063492063" width="2" height="48.88888888888889" style="opacity: 1;"></rect><text class="label" x="678.4639696586598" y="187.0793650793651" style="opacity: 1;">maintenance</text></g><g><rect class="bar active" x="119.21618204804047" y="160.63492063492063" width="544.2477876106194" height="48.88888888888889"></rect><rect class="bar-join active" x="118.21618204804047" y="160.63492063492063" width="2" height="48.88888888888889" style="opacity: 1;"></rect><text class="label" x="134.21618204804048" y="187.0793650793651" style="opacity: 1;">active</text></g><g><rect class="bar unstable" x="88.11630847029078" y="160.63492063492063" width="31.09987357774969" height="48.88888888888889"></rect><rect class="bar-join unstable" x="87.11630847029078" y="160.63492063492063" width="2" height="48.88888888888889" style="opacity: 0;"></rect><text class="label" x="103.11630847029078" y="187.0793650793651" style="opacity: 0;">unstable</text></g><g><rect class="bar maintenance" x="663.4639696586598" y="230.47619047619048" width="156.53603034134017" height="48.88888888888889"></rect><rect class="bar-join maintenance" x="662.4639696586598" y="230.47619047619048" width="2" height="48.88888888888889" style="opacity: 1;"></rect><text class="label" x="678.4639696586598" y="256.92063492063494" style="opacity: 1;">maintenance</text></g><g><rect class="bar active" x="326.5486725663717" y="230.47619047619048" width="336.91529709228814" height="48.88888888888889"></rect><rect class="bar-join active" x="325.5486725663717" y="230.47619047619048" width="2" height="48.88888888888889" style="opacity: 1;"></rect><text class="label" x="341.5486725663717" y="256.92063492063494" style="opacity: 1;">active</text></g><g><rect class="bar unstable" x="294.41213653603035" y="230.47619047619048" width="32.13653603034135" height="48.88888888888889"></rect><rect class="bar-join unstable" x="293.41213653603035" y="230.47619047619048" width="2" height="48.88888888888889" style="opacity: 0;"></rect><text class="label" x="309.41213653603035" y="256.92063492063494" style="opacity: 0;">unstable</text></g><g><rect class="bar active" x="472.71807838179524" y="300.31746031746036" width="347.28192161820476" height="48.88888888888889"></rect><rect class="bar-join active" x="471.71807838179524" y="300.31746031746036" width="2" height="48.88888888888889" style="opacity: 1;"></rect><text class="label" x="487.71807838179524" y="326.7619047619048" style="opacity: 1;">active</text></g><g><rect class="bar unstable" x="441.61820480404555" y="300.31746031746036" width="31.09987357774969" height="48.88888888888889"></rect><rect class="bar-join unstable" x="440.61820480404555" y="300.31746031746036" width="2" height="48.88888888888889" style="opacity: 0;"></rect><text class="label" x="456.61820480404555" y="326.7619047619048" style="opacity: 0;">unstable</text></g><g><rect class="bar active" x="472.71807838179524" y="370.15873015873024" width="347.28192161820476" height="48.88888888888889"></rect><rect class="bar-join active" x="471.71807838179524" y="370.15873015873024" width="2" height="48.88888888888889" style="opacity: 1;"></rect><text class="label" x="487.71807838179524" y="396.6031746031747" style="opacity: 1;">active</text></g><g><rect class="bar unstable" x="441.61820480404555" y="370.15873015873024" width="31.09987357774969" height="48.88888888888889"></rect><rect class="bar-join unstable" x="440.61820480404555" y="370.15873015873024" width="2" height="48.88888888888889" style="opacity: 0;"></rect><text class="label" x="456.61820480404555" y="396.6031746031747" style="opacity: 0;">unstable</text></g></g></svg>